<?xml version="1.0" encoding="UTF-8" standalone="no"?>
<svg width="600" height="400" viewBox="0 0 600 400" xmlns="http://www.w3.org/2000/svg">
  <!-- Background -->
  <rect width="600" height="400" fill="white"/>
  
  <!-- Chart title and subtitle -->
  <text x="50" y="30" font-family="Arial" font-size="18" font-weight="bold">China's Steel Exports Rise as Domestic Demand Falls</text>
  <text x="50" y="50" font-family="Arial" font-size="14" fill="#666">Monthly exports in million tons vs domestic consumption</text>
  
  <!-- Axes -->
  <line x1="50" y1="80" x2="50" y2="350" stroke="#000" stroke-width="2"/>
  <line x1="50" y1="350" x2="550" y2="350" stroke="#000" stroke-width="2"/>
  
  <!-- Y-axis labels -->
  <text x="45" y="350" font-family="Arial" font-size="12" text-anchor="end">0</text>
  <text x="45" y="310" font-family="Arial" font-size="12" text-anchor="end">3</text>
  <text x="45" y="270" font-family="Arial" font-size="12" text-anchor="end">6</text>
  <text x="45" y="230" font-family="Arial" font-size="12" text-anchor="end">9</text>
  <text x="45" y="190" font-family="Arial" font-size="12" text-anchor="end">12</text>
  <text x="45" y="150" font-family="Arial" font-size="12" text-anchor="end">15</text>
  <text x="45" y="110" font-family="Arial" font-size="12" text-anchor="end">18</text>
  
  <!-- X-axis labels -->
  <text x="100" y="370" font-family="Arial" font-size="11" text-anchor="middle">Mar '22</text>
  <text x="175" y="370" font-family="Arial" font-size="11" text-anchor="middle">Sep '22</text>
  <text x="250" y="370" font-family="Arial" font-size="11" text-anchor="middle">Mar '23</text>
  <text x="325" y="370" font-family="Arial" font-size="11" text-anchor="middle">Sep '23</text>
  <text x="400" y="370" font-family="Arial" font-size="11" text-anchor="middle">Mar '24</text>
  <text x="475" y="370" font-family="Arial" font-size="11" text-anchor="middle">Sep '24</text>
  <text x="530" y="370" font-family="Arial" font-size="11" text-anchor="middle">Feb '25</text>
  
  <!-- Grid lines -->
  <line x1="50" y1="310" x2="550" y2="310" stroke="#ccc" stroke-width="1"/>
  <line x1="50" y1="270" x2="550" y2="270" stroke="#ccc" stroke-width="1"/>
  <line x1="50" y1="230" x2="550" y2="230" stroke="#ccc" stroke-width="1"/>
  <line x1="50" y1="190" x2="550" y2="190" stroke="#ccc" stroke-width="1"/>
  <line x1="50" y1="150" x2="550" y2="150" stroke="#ccc" stroke-width="1"/>
  <line x1="50" y1="110" x2="550" y2="110" stroke="#ccc" stroke-width="1"/>
  
  <!-- Chart data - Bar chart for monthly exports -->
  <rect x="60" y="300" width="12" height="50" fill="#ff7f0e"/>
  <rect x="85" y="290" width="12" height="60" fill="#ff7f0e"/>
  <rect x="110" y="280" width="12" height="70" fill="#ff7f0e"/>
  <rect x="135" y="280" width="12" height="70" fill="#ff7f0e"/>
  <rect x="160" y="270" width="12" height="80" fill="#ff7f0e"/>
  <rect x="185" y="260" width="12" height="90" fill="#ff7f0e"/>
  <rect x="210" y="250" width="12" height="100" fill="#ff7f0e"/>
  <rect x="235" y="240" width="12" height="110" fill="#ff7f0e"/>
  <rect x="260" y="240" width="12" height="110" fill="#ff7f0e"/>
  <rect x="285" y="230" width="12" height="120" fill="#ff7f0e"/>
  <rect x="310" y="220" width="12" height="130" fill="#ff7f0e"/>
  <rect x="335" y="210" width="12" height="140" fill="#ff7f0e"/>
  <rect x="360" y="200" width="12" height="150" fill="#ff7f0e"/>
  <rect x="385" y="190" width="12" height="160" fill="#ff7f0e"/>
  <rect x="410" y="180" width="12" height="170" fill="#ff7f0e"/>
  <rect x="435" y="170" width="12" height="180" fill="#ff7f0e"/>
  <rect x="460" y="170" width="12" height="180" fill="#ff7f0e"/>
  <rect x="485" y="160" width="12" height="190" fill="#ff7f0e"/>
  <rect x="510" y="150" width="12" height="200" fill="#ff7f0e"/>
  
  <!-- Chart data - Line chart for domestic consumption index -->
  <polyline points="
    60,150
    85,160
    110,170
    135,180
    160,200
    185,210
    210,230
    235,240
    260,250
    285,260
    310,270
    335,280
    360,290
    385,300
    410,310
    435,310
    460,320
    485,330
    510,335
  " fill="none" stroke="#1f77b4" stroke-width="3"/>
  
  <!-- Legend -->
  <rect x="400" y="60" width="12" height="12" fill="#ff7f0e"/>
  <text x="420" y="70" font-family="Arial" font-size="12">Monthly Exports</text>
  
  <circle cx="400" cy="90" r="6" fill="#1f77b4"/>
  <text x="420" y="95" font-family="Arial" font-size="12">Domestic Consumption Index</text>
  
  <!-- Source information -->
  <text x="50" y="390" font-family="Arial" font-size="11" fill="#666">Source: China's General Administration of Customs</text>
</svg>