<?xml version="1.0" encoding="UTF-8" standalone="no"?>
<svg width="600" height="400" viewBox="0 0 600 400" xmlns="http://www.w3.org/2000/svg">
  <!-- Background -->
  <rect width="600" height="400" fill="white"/>
  
  <!-- Chart title and subtitle -->
  <text x="50" y="30" font-family="Arial" font-size="18" font-weight="bold">China's Steelmaker Profits Slump</text>
  <text x="50" y="50" font-family="Arial" font-size="14" fill="#666">Steel companies see lowest profits in decades</text>
  
  <!-- Y-axis labels -->
  <text x="45" y="380" font-family="Arial" font-size="12" text-anchor="end">0</text>
  <text x="45" y="330" font-family="Arial" font-size="12" text-anchor="end">100</text>
  <text x="45" y="280" font-family="Arial" font-size="12" text-anchor="end">200</text>
  <text x="45" y="230" font-family="Arial" font-size="12" text-anchor="end">300</text>
  <text x="45" y="180" font-family="Arial" font-size="12" text-anchor="end">400</text>
  <text x="45" y="130" font-family="Arial" font-size="12" text-anchor="end">500</text>
  <text x="45" y="80" font-family="Arial" font-size="12" text-anchor="end">600</text>
  
  <!-- X-axis labels (years) -->
  <text x="80" y="400" font-family="Arial" font-size="11" text-anchor="middle">2016</text>
  <text x="130" y="400" font-family="Arial" font-size="11" text-anchor="middle">2017</text>
  <text x="180" y="400" font-family="Arial" font-size="11" text-anchor="middle">2018</text>
  <text x="230" y="400" font-family="Arial" font-size="11" text-anchor="middle">2019</text>
  <text x="280" y="400" font-family="Arial" font-size="11" text-anchor="middle">2020</text>
  <text x="330" y="400" font-family="Arial" font-size="11" text-anchor="middle">2021</text>
  <text x="380" y="400" font-family="Arial" font-size="11" text-anchor="middle">2022</text>
  <text x="430" y="400" font-family="Arial" font-size="11" text-anchor="middle">2023</text>
  <text x="480" y="400" font-family="Arial" font-size="11" text-anchor="middle">2024</text>
  <text x="530" y="400" font-family="Arial" font-size="11" text-anchor="middle">2025</text>
  
  <!-- Grid lines -->
  <line x1="50" y1="380" x2="550" y2="380" stroke="#ccc" stroke-width="1"/>
  <line x1="50" y1="330" x2="550" y2="330" stroke="#ccc" stroke-width="1"/>
  <line x1="50" y1="280" x2="550" y2="280" stroke="#ccc" stroke-width="1"/>
  <line x1="50" y1="230" x2="550" y2="230" stroke="#ccc" stroke-width="1"/>
  <line x1="50" y1="180" x2="550" y2="180" stroke="#ccc" stroke-width="1"/>
  <line x1="50" y1="130" x2="550" y2="130" stroke="#ccc" stroke-width="1"/>
  <line x1="50" y1="80" x2="550" y2="80" stroke="#ccc" stroke-width="1"/>
  
  <!-- Axes -->
  <line x1="50" y1="80" x2="50" y2="380" stroke="#000" stroke-width="2"/>
  <line x1="50" y1="380" x2="550" y2="380" stroke="#000" stroke-width="2"/>
  
  <!-- Data bars -->
  <rect x="70" y="370" width="20" height="10" fill="#1f77b4"/>
  <rect x="120" y="280" width="20" height="100" fill="#1f77b4"/>
  <rect x="170" y="180" width="20" height="200" fill="#1f77b4"/>
  <rect x="220" y="230" width="20" height="150" fill="#1f77b4"/>
  <rect x="270" y="280" width="20" height="100" fill="#1f77b4"/>
  <rect x="320" y="130" width="20" height="250" fill="#1f77b4"/>
  <rect x="370" y="150" width="20" height="230" fill="#1f77b4"/>
  <rect x="420" y="330" width="20" height="50" fill="#1f77b4"/>
  <rect x="470" y="350" width="20" height="30" fill="#1f77b4"/>
  <rect x="520" y="360" width="20" height="20" fill="#1f77b4"/>
  
  <!-- Source information -->
  <text x="50" y="430" font-family="Arial" font-size="11" fill="#666">Source: China's National Bureau of Statistics</text>
</svg>